<svg width="38" height="38" viewBox="0 0 38 38" fill="none" xmlns="http://www.w3.org/2000/svg">
<path d="M18.575 19.975L13.675 24.875C13.4917 25.0583 13.2583 25.15 12.975 25.15C12.6917 25.15 12.4583 25.0583 12.275 24.875C12.0917 24.6917 12 24.4583 12 24.175C12 23.8917 12.0917 23.6583 12.275 23.475L17.175 18.575L12.275 13.675C12.0917 13.4917 12 13.2583 12 12.975C12 12.6917 12.0917 12.4583 12.275 12.275C12.4583 12.0917 12.6917 12 12.975 12C13.2583 12 13.4917 12.0917 13.675 12.275L18.575 17.175L23.475 12.275C23.6583 12.0917 23.8917 12 24.175 12C24.4583 12 24.6917 12.0917 24.875 12.275C25.0583 12.4583 25.15 12.6917 25.15 12.975C25.15 13.2583 25.0583 13.4917 24.875 13.675L19.975 18.575L24.875 23.475C25.0583 23.6583 25.15 23.8917 25.15 24.175C25.15 24.4583 25.0583 24.6917 24.875 24.875C24.6917 25.0583 24.4583 25.15 24.175 25.15C23.8917 25.15 23.6583 25.0583 23.475 24.875L18.575 19.975Z" fill="#F2F2F2"/>
</svg>
