<svg width="700" height="600" viewBox="0 0 700 600" fill="none" xmlns="http://www.w3.org/2000/svg">
<g clip-path="url(#clip0_429_13434)">
<path d="M461.195 271.8C473.845 247.65 496.365 227.46 523.215 223.35C530.285 222.39 537.485 222.75 544.415 224.42C583.965 233.28 608.695 272.62 600.965 312.34C599.435 320.22 597.645 328.37 596.375 337.42C595.925 340.51 594.845 343.48 593.195 346.14C591.565 348.8 589.375 351.09 586.815 352.87C584.235 354.65 581.325 355.88 578.265 356.49C575.185 357.1 572.035 357.06 568.975 356.4L568.825 356.37L562.065 354.93C541.945 350.68 518.935 355.48 497.115 355.22C464.585 354.83 441.735 323.14 452.115 292.38C454.595 285.3 457.635 278.43 461.215 271.83L461.195 271.8Z" fill="#AAA7C2"/>
<path d="M509.195 360.54C539.635 360.54 564.335 335.9 564.335 305.51C564.335 275.12 539.645 250.48 509.195 250.48C478.745 250.48 454.055 275.12 454.055 305.51C454.055 335.9 478.745 360.54 509.195 360.54Z" fill="#9F616A"/>
<path d="M484.605 228.31C507.615 219.41 535.305 224.01 554.185 239.85C573.065 255.69 582.375 282.12 577.555 306.27C546.955 302.22 510.385 325.01 482.715 291.14L478.425 271.12L470.575 288.98C460.735 287.21 450.875 285.43 440.995 283.63C444.245 259.23 461.615 237.21 484.605 228.32V228.31Z" fill="#AAA7C2"/>
<path d="M475.085 399.79L452.095 409.72L439.805 415.03L431.785 418.49C428.395 419.39 425.215 420.97 422.445 423.13C417.715 426.82 414.405 432.03 413.065 437.87C411.735 443.71 412.465 449.84 415.125 455.21C417.775 460.58 422.215 464.87 427.675 467.36C433.145 469.85 439.295 470.38 445.105 468.87L492.155 463.5C493.495 463.34 494.785 462.9 495.945 462.2C497.095 461.5 498.075 460.57 498.835 459.46C500.385 457.19 514.905 450.36 514.225 447.71L520.435 444.87L529.455 442.05L563.325 426.5L558.195 407.6L562.945 384.4C562.235 381.78 485.385 401.12 482.925 399.97C481.725 399.38 480.375 399.05 479.035 399.02C477.675 398.99 476.335 399.26 475.095 399.79H475.085Z" fill="#3F3D56"/>
<path d="M617.935 555.55H425.675C421.265 555.55 416.895 554.68 412.815 552.99C408.715 551.3 405.015 548.83 401.905 545.72C398.775 542.6 396.295 538.9 394.605 534.83C392.915 530.76 392.045 526.4 392.045 521.99V443.01C392.045 434.11 395.585 425.57 401.905 419.28C408.205 412.99 416.755 409.45 425.675 409.45L476.305 370.78H572.275L617.935 409.45C626.845 409.45 635.405 412.98 641.705 419.28C648.005 425.57 651.545 434.11 651.545 443.01V521.99C651.545 530.89 647.995 539.43 641.705 545.72C635.405 552.01 626.855 555.55 617.935 555.55Z" fill="#2F2E43"/>
<path d="M308.125 363.94C306.595 366.69 305.695 369.75 305.485 372.9C305.275 376.06 305.755 379.22 306.885 382.15C308.025 385.1 309.795 387.76 312.065 389.95C314.335 392.14 317.055 393.8 320.045 394.83L374.865 517.49L381.875 533.18C389.085 549.31 411.865 549.54 419.355 533.56L427.405 516.39L402.745 480.94L395.395 467.37L348.085 380C349.455 374.87 348.905 369.42 346.535 364.66C344.165 359.92 340.135 356.2 335.205 354.21C330.285 352.24 324.805 352.13 319.815 353.92C314.825 355.72 310.675 359.28 308.135 363.94H308.125Z" fill="#9F616A"/>
<path d="M510.155 397.43C510.155 397.43 527.185 417.63 513.735 437.65C502.965 453.68 460.625 511 440.325 528.51C382.565 593.81 377.365 509.81 371.495 515.09L398.465 473.03C398.595 460.39 401.565 483.16 406.455 483.96L417.205 456.56L417.465 431.27L493.325 385.16L510.165 397.43H510.155Z" fill="#2F2E43"/>
<path d="M465.045 347.02C462.755 349.18 460.965 351.82 459.815 354.76C458.655 357.71 458.155 360.86 458.345 364C458.535 367.15 459.415 370.23 460.915 373C462.415 375.77 464.505 378.18 467.045 380.07L482.105 513.57L484.035 530.65C486.015 548.2 507.665 555.33 519.645 542.37L532.515 528.44L519.755 487.19L516.865 472.03L498.265 374.43C501.125 369.96 502.255 364.6 501.435 359.34C500.615 354.1 497.895 349.33 493.805 345.95C489.715 342.58 484.525 340.82 479.225 341.01C473.925 341.21 468.885 343.35 465.055 347.02H465.045Z" fill="#9F616A"/>
<path d="M647.415 440.16C647.415 440.16 657.525 464.57 638.635 479.58C623.515 491.59 565.795 533.39 541.145 543.92C466.305 588.64 486.815 507.02 479.615 510.27L518.065 478.36C522.025 466.36 517.955 488.95 522.365 491.19L540.905 468.33L548.815 444.31L635.085 423.36L647.415 440.15V440.16Z" fill="#2F2E43"/>
<path d="M217.285 560C216.535 560 215.795 559.87 215.085 559.61L167.305 542.24C164.505 541.22 162.845 538.65 163.075 535.68C163.305 532.71 165.345 530.42 168.265 529.85L300.235 504.01C301.295 503.8 302.415 503.87 303.445 504.2L340.315 516.02C343.115 516.92 344.875 519.4 344.795 522.34C344.715 525.28 342.815 527.66 339.965 528.4L218.905 559.79C218.375 559.93 217.825 560 217.285 560Z" fill="#17BF63"/>
<path d="M57.7851 410.08L57.7351 408.74L49.7251 207.97L58.6751 201.53L59.1551 201.57L246.105 216.66L266.905 226.2L266.945 227L274.985 397.63L57.7851 410.09V410.08ZM52.4051 209.28L60.3051 407.3L272.225 395.14L264.345 227.92L245.425 219.24L59.4251 204.23L52.4151 209.28H52.4051Z" fill="#3F3D56"/>
<path d="M247.605 337.81H79.525C72.945 337.81 67.595 332.46 67.595 325.88V276.52C67.595 273.24 68.895 270.19 71.265 267.92C73.635 265.64 76.755 264.47 80.035 264.6L248.115 271.85C254.515 272.11 259.525 277.35 259.525 283.76V325.88C259.525 332.46 254.175 337.81 247.595 337.81H247.605Z" fill="#CECEE4"/>
<path d="M148.555 277.32V333.79C148.555 334.95 148.395 336.08 148.095 337.15H79.5251C73.2951 337.15 68.2551 332.11 68.2551 325.88V276.52C68.2551 270.11 73.5951 264.99 80.0051 265.25L144.435 268.03C146.965 270.32 148.545 273.64 148.545 277.32H148.555Z" fill="#17BF63"/>
<path d="M206.595 289.82H158.725V292.45H206.595V289.82Z" fill="#3F3D56"/>
<path d="M243.985 304.47H158.725V307.1H243.985V304.47Z" fill="#3F3D56"/>
<path d="M268.995 229.92L48.4551 213.42V199.15C48.4551 195.45 50.0251 191.91 52.7751 189.42C55.5151 186.94 59.2051 185.72 62.8851 186.09L257.195 205.51C263.935 206.18 269.005 211.79 269.005 218.56V229.91L268.995 229.92Z" fill="#3F3D56"/>
<path d="M68.9152 205.52C71.4612 205.52 73.5252 203.456 73.5252 200.91C73.5252 198.364 71.4612 196.3 68.9152 196.3C66.3691 196.3 64.3052 198.364 64.3052 200.91C64.3052 203.456 66.3691 205.52 68.9152 205.52Z" fill="white"/>
<path d="M84.715 208.15C87.261 208.15 89.325 206.086 89.325 203.54C89.325 200.994 87.261 198.93 84.715 198.93C82.1689 198.93 80.105 200.994 80.105 203.54C80.105 206.086 82.1689 208.15 84.715 208.15Z" fill="white"/>
<path d="M99.195 209.47C101.741 209.47 103.805 207.406 103.805 204.86C103.805 202.314 101.741 200.25 99.195 200.25C96.6489 200.25 94.585 202.314 94.585 204.86C94.585 207.406 96.6489 209.47 99.195 209.47Z" fill="white"/>
<path d="M351.225 279.85C357.079 279.85 361.825 275.104 361.825 269.25C361.825 263.396 357.079 258.65 351.225 258.65C345.371 258.65 340.625 263.396 340.625 269.25C340.625 275.104 345.371 279.85 351.225 279.85Z" fill="#FF6584"/>
<path d="M309.725 166.67C294.345 172.84 286.635 190.33 292.465 205.84C292.515 205.98 292.915 206.99 293.425 208.29C294.995 212.29 299.505 214.26 303.505 212.69C307.505 211.12 309.475 206.6 307.905 202.6C307.555 201.7 307.315 201.09 307.295 201.05C304.315 193.47 308.045 184.9 315.635 181.92C323.225 178.94 331.785 182.67 334.765 190.26C336.605 194.94 335.935 200.24 332.985 204.31C332.985 204.31 325.285 214.99 325.715 225.33C325.895 227.41 326.375 229.46 327.135 231.4C327.445 232.2 330.245 239.18 332.565 244.82C334.235 248.87 338.835 250.83 342.915 249.23C347.035 247.61 349.065 242.96 347.455 238.83C347.455 238.81 347.445 238.8 347.435 238.78C345.365 233.59 342.965 227.55 342.795 227.11C340.605 221.52 343.805 213.84 346.805 208.47C350.265 202.29 351.695 195.15 350.645 188.14C350.455 186.69 350.095 185.26 349.595 183.89C343.415 168.16 325.655 160.41 309.925 166.59C309.855 166.62 309.785 166.64 309.715 166.67H309.725Z" fill="#FF6584"/>
<path d="M304.215 208.46C300.215 210.03 295.705 208.06 294.135 204.06C293.625 202.75 293.225 201.75 293.175 201.61C291.475 197.1 290.875 192.25 291.425 187.46C289.825 193.55 290.155 199.99 292.375 205.89C292.425 206.03 292.825 207.03 293.335 208.34C294.905 212.34 299.415 214.31 303.415 212.74C306.655 211.47 308.655 208.19 308.315 204.73C307.455 206.44 305.995 207.77 304.215 208.47V208.46Z" fill="#3F3D56"/>
<path d="M316.205 181.73C323.925 179.12 332.295 183.26 334.915 190.98C335.485 192.67 335.745 194.45 335.685 196.23C338.335 188.52 334.235 180.13 326.535 177.48C318.835 174.83 310.435 178.93 307.785 186.63C307.315 188.01 307.045 189.45 306.995 190.9C308.475 186.58 311.885 183.19 316.215 181.73H316.205Z" fill="#3F3D56"/>
<path d="M351.975 277.57C346.125 277.36 341.555 272.44 341.765 266.59C341.805 265.6 341.975 264.62 342.285 263.67C339.145 268.61 340.605 275.17 345.545 278.31C350.485 281.45 357.045 279.99 360.185 275.05C360.655 274.31 361.035 273.51 361.315 272.67C359.295 275.85 355.735 277.72 351.975 277.58V277.57Z" fill="#3F3D56"/>
<path d="M403.855 252.36C407.589 252.36 410.615 249.333 410.615 245.6C410.615 241.866 407.589 238.84 403.855 238.84C400.122 238.84 397.095 241.866 397.095 245.6C397.095 249.333 400.122 252.36 403.855 252.36Z" fill="#3F3D56"/>
<path d="M435.615 182.62C426.195 177.83 414.575 181.49 409.585 190.8C409.535 190.89 409.225 191.49 408.815 192.29C407.555 194.72 408.505 197.71 410.945 198.97C413.375 200.23 416.375 199.27 417.635 196.84C417.915 196.3 418.105 195.92 418.125 195.9C420.505 191.29 426.185 189.48 430.795 191.86C435.405 194.24 437.215 199.92 434.835 204.53C433.365 207.38 430.545 209.28 427.345 209.58C427.345 209.58 418.985 210.38 414.215 214.92C413.295 215.88 412.515 216.97 411.905 218.15C411.655 218.64 409.485 222.91 407.755 226.39C406.515 228.89 407.505 231.92 409.985 233.2C412.495 234.5 415.575 233.52 416.875 231.01C416.875 231.01 416.875 230.99 416.885 230.98C418.505 227.81 420.395 224.12 420.535 223.85C422.295 220.45 427.325 218.76 431.155 217.94C435.575 217 439.595 214.69 442.515 211.24C443.125 210.54 443.665 209.77 444.115 208.95C449.065 199.38 445.315 187.61 435.755 182.66C435.715 182.64 435.675 182.62 435.625 182.6L435.615 182.62Z" fill="#3F3D56"/>
<path d="M413.265 197.53C410.835 196.27 409.885 193.28 411.135 190.85C411.545 190.05 411.865 189.44 411.905 189.36C413.355 186.65 415.425 184.33 417.955 182.58C414.365 184.37 411.415 187.24 409.525 190.78C409.475 190.87 409.165 191.47 408.755 192.27C407.495 194.7 408.445 197.69 410.885 198.95C412.855 199.97 415.265 199.55 416.785 197.93C415.605 198.24 414.355 198.09 413.275 197.53H413.265Z" fill="#3F3D56"/>
<path d="M431.115 192.06C435.605 194.66 437.145 200.42 434.535 204.91C433.965 205.89 433.225 206.77 432.345 207.48C437.155 205.51 439.455 200.02 437.485 195.22C435.515 190.41 430.025 188.11 425.225 190.08C424.365 190.43 423.565 190.91 422.845 191.49C425.545 190.39 428.595 190.59 431.115 192.06Z" fill="#3F3D56"/>
<path d="M400.185 249.46C397.835 246.56 398.265 242.31 401.165 239.95C401.655 239.55 402.205 239.22 402.785 238.97C399.095 239.54 396.565 242.99 397.135 246.68C397.705 250.37 401.155 252.9 404.845 252.33C405.405 252.24 405.945 252.09 406.455 251.87C404.085 252.24 401.695 251.32 400.175 249.45L400.185 249.46Z" fill="#3F3D56"/>
</g>
<defs>
<clipPath id="clip0_429_13434">
<rect width="603.09" height="395.54" fill="white" transform="translate(48.4551 164.46)"/>
</clipPath>
</defs>
</svg>
